<svg version="1.1" style="font-family: Roboto; font-size: 12px;"
	xmlns="http://www.w3.org/2000/svg" width="650" height="400" viewBox="0 0 650 400" aria-hidden="false" aria-label="Interactive chart">
	<defs aria-hidden="true">
		<clipPath >
			<rect x="0" y="0" width="630" height="338" fill="none"></rect>
		</clipPath>
		<clipPath >
			<rect x="0" y="0" width="630" height="902.5795693763476" fill="none"></rect>
		</clipPath>
	</defs>
	<rect fill="#ffffff" x="0" y="0" width="650" height="400" rx="0" ry="0" aria-hidden="true"></rect>
	<rect fill="none" x="10" y="47" width="630" height="338" aria-hidden="true"></rect>
	<g data-z-index="0" aria-hidden="true">
		<path fill="rgb(237, 238, 240)" d="M 325 55.111999999999995 A 160.888 160.888 0 1 1 324.8391120268146 55.11208044399328 M 324.8735880210686 89.58806320599473 A 126.412 126.412 0 1 0 325 89.588" ></path>
	</g>
	<rect fill="none" data-z-index="1" x="10" y="47" width="630" height="338" aria-hidden="true"></rect>
	<g data-z-index="1" aria-hidden="true"></g>
	<g data-z-index="2" aria-hidden="true">
		<path fill="none" data-z-index="7" d="M 325 72.35 A 143.65 143.65 0 1 1 324.8563500239416 72.35007182499402 M 325 216 A 0 0 0 1 0 325 216"></path>
	</g>
	<g data-z-index="3" aria-hidden="false">
		<g data-z-index="0.1" opacity="1" transform="translate(10,47) scale(1 1)" clip-path="url(#highcharts-zxffe6h-25-)" style="cursor: pointer;" aria-hidden="false">
			<path fill="#94d13d" d="M 315 8.111999999999995 A 160.888 160.888 0 1 1 161.93677859518453 119.43591222285592 A 17.238 17.238 0 1 1 194.73604032478784 130.05678817510108 A 126.412 126.412 0 1 0 315 42.587999999999994 A 17.238 17.238 0 1 1 315 8.111999999999995" sweep-flag="0" stroke-linecap="round" stroke-linejoin="round" tabindex="-1" role="img" aria-label="0.8." style="outline: none;"></path>
		</g>
		<g data-z-index="0.1" opacity="1" transform="translate(10,47) scale(1 1)" clip-path="none" aria-hidden="true"></g>
	</g>
	<g data-z-index="3" aria-hidden="true">
		<g stroke-linecap="round" style="cursor: pointer;" transform="translate(616,10)">
			<title>Chart context menu</title>
			<rect fill="#ffffff" x="0.5" y="0.5" width="24" height="22" rx="2" ry="2" stroke="none" stroke-width="1"></rect>
			<path fill="#666666" d="M 6 6.5 L 20 6.5 M 6 11.5 L 20 11.5 M 6 16.5 L 20 16.5" data-z-index="1" stroke="#666666" stroke-width="3"></path>
			<text font-family='Roboto-Regular,Roboto' x="0" data-z-index="1" y="15.5" style="color: rgb(51, 51, 51); font-weight: normal; fill: rgb(51, 51, 51);"></text>
		</g>
	</g>
	<text font-family='Roboto-Regular,Roboto' x="325" text-anchor="middle" data-z-index="4" style="color: rgb(51, 51, 51); font-size: 18px; fill: rgb(51, 51, 51);" y="24" aria-hidden="true">Chart title</text>
	<text font-family='Roboto-Regular,Roboto' x="325" text-anchor="middle" data-z-index="4" style="color: rgb(102, 102, 102); fill: rgb(102, 102, 102);" y="46" aria-hidden="true"></text>
	<text font-family='Roboto-Regular,Roboto' x="10" text-anchor="start" data-z-index="4" style="color: rgb(102, 102, 102); fill: rgb(102, 102, 102);" y="397" aria-hidden="true"></text>
	<g data-z-index="7" aria-hidden="true"></g>
</svg>